# xmcd
#
# Track frame offsets:
#	150
#	23433
#	37228
#	52761
#	66730
#	80348
#	94294
#	108020
#	124714
#	147997
#	161792
#	177325
#	191294
#	204912
#	218858
#	232584
#
# Disc length: 3323
#
# Revision: 1
# Processed by: cddbd v1.5.2PL0 Copyright (c) Steve Scherf et al.
# Submitted via: kJams Pro (development) 1.0patch46.35
#
DISCID=d30cf910
DTITLE=Various Artist - Let's Get it On
DYEAR=1900
DGENRE=R&B
TTITLE0=Marvin Gaye - 1968
TTITLE1=Four Tops - 1968
TTITLE2=Jackson 5 - 1968
TTITLE3=The Miricles - 1968
TTITLE4=The Supremes - 1968
TTITLE5=Isley Brothers - 1968
TTITLE6=The Temptations - 1968
TTITLE7=Isley Brothers - 1968
TTITLE8=Marvin Gaye - 1968
TTITLE9=Four Tops - 1968
TTITLE10=Jackson 5 - 1968
TTITLE11=The Miricles - 1968
TTITLE12=The Supremes - 1968
TTITLE13=Isley Brothers - 1968
TTITLE14=The Temptations - 1968
TTITLE15=Isley Brothers - 1968
EXTD=
EXTT0=
EXTT1=
EXTT2=
EXTT3=
EXTT4=
EXTT5=
EXTT6=
EXTT7=
EXTT8=
EXTT9=
EXTT10=
EXTT11=
EXTT12=
EXTT13=
EXTT14=
EXTT15=
PLAYORDER=
